<mxfile host="app.diagrams.net" modified="2024-02-22T06:31:16.455Z" agent="Mozilla/5.0 (Windows NT 10.0; Win64; x64) AppleWebKit/537.36 (KHTML, like Gecko) Chrome/121.0.0.0 Safari/537.36" etag="cWYDG-2gz_btQRfD9dhy" version="23.1.5" type="device">
  <diagram name="Page-1" id="9f46799a-70d6-7492-0946-bef42562c5a5">
    <mxGraphModel dx="2150" dy="569" grid="1" gridSize="10" guides="1" tooltips="1" connect="1" arrows="1" fold="1" page="1" pageScale="1" pageWidth="1100" pageHeight="850" background="none" math="0" shadow="0">
      <root>
        <mxCell id="0" />
        <mxCell id="1" parent="0" />
        <mxCell id="fsDWQdxyhvrhz4lD38AN-2" value="paper" style="swimlane;whiteSpace=wrap;html=1;" parent="1" vertex="1">
          <mxGeometry x="180" y="70" width="200" height="140" as="geometry">
            <mxRectangle x="180" y="70" width="70" height="30" as="alternateBounds" />
          </mxGeometry>
        </mxCell>
        <mxCell id="fsDWQdxyhvrhz4lD38AN-3" value="&lt;u&gt;paper_id&lt;/u&gt;" style="text;html=1;align=center;verticalAlign=middle;resizable=0;points=[];autosize=1;strokeColor=none;fillColor=none;" parent="fsDWQdxyhvrhz4lD38AN-2" vertex="1">
          <mxGeometry x="10" y="20" width="70" height="30" as="geometry" />
        </mxCell>
        <mxCell id="fsDWQdxyhvrhz4lD38AN-4" value="paper_name" style="text;html=1;align=center;verticalAlign=middle;resizable=0;points=[];autosize=1;strokeColor=none;fillColor=none;" parent="fsDWQdxyhvrhz4lD38AN-2" vertex="1">
          <mxGeometry x="10" y="40" width="90" height="30" as="geometry" />
        </mxCell>
        <mxCell id="fsDWQdxyhvrhz4lD38AN-5" value="subject" style="text;html=1;align=center;verticalAlign=middle;resizable=0;points=[];autosize=1;strokeColor=none;fillColor=none;" parent="fsDWQdxyhvrhz4lD38AN-2" vertex="1">
          <mxGeometry x="10" y="55" width="60" height="30" as="geometry" />
        </mxCell>
        <mxCell id="fsDWQdxyhvrhz4lD38AN-6" value="exam_date" style="text;html=1;align=center;verticalAlign=middle;resizable=0;points=[];autosize=1;strokeColor=none;fillColor=none;" parent="fsDWQdxyhvrhz4lD38AN-2" vertex="1">
          <mxGeometry x="10" y="70" width="80" height="30" as="geometry" />
        </mxCell>
        <mxCell id="fsDWQdxyhvrhz4lD38AN-7" value="exam_name" style="text;html=1;align=center;verticalAlign=middle;resizable=0;points=[];autosize=1;strokeColor=none;fillColor=none;" parent="fsDWQdxyhvrhz4lD38AN-2" vertex="1">
          <mxGeometry x="10" y="90" width="90" height="30" as="geometry" />
        </mxCell>
        <mxCell id="fsDWQdxyhvrhz4lD38AN-8" value="time" style="text;html=1;align=center;verticalAlign=middle;resizable=0;points=[];autosize=1;strokeColor=none;fillColor=none;" parent="fsDWQdxyhvrhz4lD38AN-2" vertex="1">
          <mxGeometry x="10" y="110" width="50" height="30" as="geometry" />
        </mxCell>
        <mxCell id="fsDWQdxyhvrhz4lD38AN-9" value="Instructions" style="swimlane;whiteSpace=wrap;html=1;" parent="1" vertex="1">
          <mxGeometry x="620" y="70" width="200" height="90" as="geometry" />
        </mxCell>
        <mxCell id="fsDWQdxyhvrhz4lD38AN-16" value="&lt;u&gt;instruction_id&lt;/u&gt;" style="text;html=1;align=center;verticalAlign=middle;resizable=0;points=[];autosize=1;strokeColor=none;fillColor=none;" parent="fsDWQdxyhvrhz4lD38AN-9" vertex="1">
          <mxGeometry x="10" y="20" width="90" height="30" as="geometry" />
        </mxCell>
        <mxCell id="fsDWQdxyhvrhz4lD38AN-17" value="instruction_text" style="text;html=1;align=center;verticalAlign=middle;resizable=0;points=[];autosize=1;strokeColor=none;fillColor=none;" parent="fsDWQdxyhvrhz4lD38AN-9" vertex="1">
          <mxGeometry x="10" y="38" width="100" height="30" as="geometry" />
        </mxCell>
        <mxCell id="fsDWQdxyhvrhz4lD38AN-20" value="questions" style="swimlane;whiteSpace=wrap;html=1;" parent="1" vertex="1">
          <mxGeometry x="180" y="240" width="200" height="190" as="geometry">
            <mxRectangle x="180" y="240" width="100" height="30" as="alternateBounds" />
          </mxGeometry>
        </mxCell>
        <mxCell id="fsDWQdxyhvrhz4lD38AN-28" value="&lt;div style=&quot;&quot;&gt;&lt;u&gt;question_id&lt;/u&gt;&amp;nbsp;&lt;/div&gt;&lt;div&gt;question_text&lt;/div&gt;&lt;div&gt;expected_time&lt;/div&gt;&lt;div&gt;space_allocated&amp;nbsp;&lt;/div&gt;&lt;div&gt;difficulty_level&lt;/div&gt;&lt;div&gt;question_type&lt;/div&gt;&lt;div&gt;subject&lt;/div&gt;&lt;div&gt;subject_area&amp;nbsp;&lt;/div&gt;&lt;div&gt;mark&lt;/div&gt;&lt;div&gt;image_name&lt;/div&gt;" style="text;html=1;align=left;verticalAlign=middle;resizable=0;points=[];autosize=1;strokeColor=none;fillColor=none;" parent="fsDWQdxyhvrhz4lD38AN-20" vertex="1">
          <mxGeometry x="20" y="25" width="110" height="160" as="geometry" />
        </mxCell>
        <mxCell id="r3htAQ9X3LOmCtYxDNMq-9" style="edgeStyle=orthogonalEdgeStyle;rounded=0;orthogonalLoop=1;jettySize=auto;html=1;exitX=0;exitY=0.5;exitDx=0;exitDy=0;entryX=1;entryY=0.5;entryDx=0;entryDy=0;" parent="1" source="r3htAQ9X3LOmCtYxDNMq-1" target="fsDWQdxyhvrhz4lD38AN-2" edge="1">
          <mxGeometry relative="1" as="geometry">
            <Array as="points">
              <mxPoint x="400" y="235" />
              <mxPoint x="400" y="140" />
            </Array>
          </mxGeometry>
        </mxCell>
        <mxCell id="r3htAQ9X3LOmCtYxDNMq-10" style="edgeStyle=orthogonalEdgeStyle;rounded=0;orthogonalLoop=1;jettySize=auto;html=1;entryX=0;entryY=0.5;entryDx=0;entryDy=0;" parent="1" source="r3htAQ9X3LOmCtYxDNMq-1" target="fsDWQdxyhvrhz4lD38AN-9" edge="1">
          <mxGeometry relative="1" as="geometry" />
        </mxCell>
        <mxCell id="r3htAQ9X3LOmCtYxDNMq-1" value="paper_Instructions" style="swimlane;whiteSpace=wrap;html=1;" parent="1" vertex="1">
          <mxGeometry x="420" y="200" width="150" height="70" as="geometry">
            <mxRectangle x="180" y="70" width="70" height="30" as="alternateBounds" />
          </mxGeometry>
        </mxCell>
        <mxCell id="r3htAQ9X3LOmCtYxDNMq-2" value="&lt;u&gt;paper_id&lt;/u&gt;" style="text;html=1;align=center;verticalAlign=middle;resizable=0;points=[];autosize=1;strokeColor=none;fillColor=none;" parent="r3htAQ9X3LOmCtYxDNMq-1" vertex="1">
          <mxGeometry x="10" y="20" width="70" height="30" as="geometry" />
        </mxCell>
        <mxCell id="r3htAQ9X3LOmCtYxDNMq-8" value="&lt;u&gt;instruction_id&lt;/u&gt;" style="text;html=1;align=center;verticalAlign=middle;resizable=0;points=[];autosize=1;strokeColor=none;fillColor=none;" parent="r3htAQ9X3LOmCtYxDNMq-1" vertex="1">
          <mxGeometry x="10" y="40" width="90" height="30" as="geometry" />
        </mxCell>
        <mxCell id="r3htAQ9X3LOmCtYxDNMq-14" style="edgeStyle=orthogonalEdgeStyle;rounded=0;orthogonalLoop=1;jettySize=auto;html=1;entryX=0;entryY=0.5;entryDx=0;entryDy=0;" parent="1" source="r3htAQ9X3LOmCtYxDNMq-11" target="fsDWQdxyhvrhz4lD38AN-2" edge="1">
          <mxGeometry relative="1" as="geometry">
            <Array as="points">
              <mxPoint x="160" y="160" />
              <mxPoint x="160" y="140" />
            </Array>
          </mxGeometry>
        </mxCell>
        <mxCell id="r3htAQ9X3LOmCtYxDNMq-15" style="edgeStyle=orthogonalEdgeStyle;rounded=0;orthogonalLoop=1;jettySize=auto;html=1;exitX=0;exitY=0.5;exitDx=0;exitDy=0;entryX=0;entryY=0.5;entryDx=0;entryDy=0;" parent="1" source="r3htAQ9X3LOmCtYxDNMq-11" target="fsDWQdxyhvrhz4lD38AN-20" edge="1">
          <mxGeometry relative="1" as="geometry" />
        </mxCell>
        <mxCell id="r3htAQ9X3LOmCtYxDNMq-11" value="paper_questions" style="swimlane;whiteSpace=wrap;html=1;" parent="1" vertex="1">
          <mxGeometry x="-10" y="130" width="150" height="70" as="geometry">
            <mxRectangle x="180" y="70" width="70" height="30" as="alternateBounds" />
          </mxGeometry>
        </mxCell>
        <mxCell id="r3htAQ9X3LOmCtYxDNMq-12" value="&lt;u&gt;paper_id&lt;/u&gt;" style="text;html=1;align=center;verticalAlign=middle;resizable=0;points=[];autosize=1;strokeColor=none;fillColor=none;" parent="r3htAQ9X3LOmCtYxDNMq-11" vertex="1">
          <mxGeometry x="10" y="20" width="70" height="30" as="geometry" />
        </mxCell>
        <mxCell id="r3htAQ9X3LOmCtYxDNMq-13" value="&lt;u style=&quot;border-color: var(--border-color); text-align: left;&quot;&gt;question_id&lt;/u&gt;" style="text;html=1;align=center;verticalAlign=middle;resizable=0;points=[];autosize=1;strokeColor=none;fillColor=none;" parent="r3htAQ9X3LOmCtYxDNMq-11" vertex="1">
          <mxGeometry x="15" y="40" width="80" height="30" as="geometry" />
        </mxCell>
      </root>
    </mxGraphModel>
  </diagram>
</mxfile>
